G04 Layer: TopSolderMaskLayer*
G04 EasyEDA v6.5.57, 2026-08-10 20:45:29*
G04 c860459aa20a45b9908c3e8366ac2f5b,e19a77d54f684c31816133f074f03367,10*
G04 Gerber Generator version 0.2*
G04 Scale: 100 percent, Rotated: No, Reflected: No *
G04 Dimensions in millimeters *
G04 leading zeros omitted , absolute positions ,4 integer and 5 decimal *
%FSLAX45Y45*%
%MOMM*%

%AMMACRO1*4,1,8,-2.6708,-1.3001,-2.7,-1.2706,-2.7,1.2709,-2.6708,1.3001,2.6706,1.3001,2.7,1.2709,2.7,-1.2706,2.6706,-1.3001,-2.6708,-1.3001,0*%
%AMMACRO2*4,1,8,-2.6708,-1.3,-2.7,-1.2705,-2.7,1.2708,-2.6708,1.3,2.6706,1.3,2.7,1.2708,2.7,-1.2705,2.6706,-1.3,-2.6708,-1.3,0*%
%AMMACRO3*4,1,8,-0.6962,-0.7559,-0.7259,-0.7259,-0.7259,0.7262,-0.6962,0.7559,0.696,0.7559,0.7259,0.7262,0.7259,-0.7259,0.696,-0.7559,-0.6962,-0.7559,0*%
%AMMACRO4*4,1,8,-0.6962,-0.7558,-0.7259,-0.7258,-0.7259,0.7261,-0.6962,0.7558,0.696,0.7558,0.7259,0.7261,0.7259,-0.7258,0.696,-0.7558,-0.6962,-0.7558,0*%
%AMMACRO5*4,1,8,-0.521,-0.7506,-0.5507,-0.7206,-0.5507,0.7209,-0.521,0.7506,0.5207,0.7506,0.5507,0.7209,0.5507,-0.7206,0.5207,-0.7506,-0.521,-0.7506,0*%
%AMMACRO6*4,1,8,-0.5211,-0.7506,-0.5508,-0.7206,-0.5508,0.7209,-0.5211,0.7506,0.5208,0.7506,0.5508,0.7209,0.5508,-0.7206,0.5208,-0.7506,-0.5211,-0.7506,0*%
%AMMACRO7*4,1,8,-0.5874,-0.7394,-0.6171,-0.7094,-0.6171,0.7097,-0.5874,0.7394,0.5871,0.7394,0.6171,0.7097,0.6171,-0.7094,0.5871,-0.7394,-0.5874,-0.7394,0*%
%AMMACRO8*4,1,8,-0.7097,-0.6171,-0.7394,-0.5871,-0.7394,0.5874,-0.7097,0.6171,0.7094,0.6171,0.7394,0.5874,0.7394,-0.5871,0.7094,-0.6171,-0.7097,-0.6171,0*%
%AMMACRO9*4,1,8,-0.651,-0.6807,-0.6807,-0.6507,-0.6807,0.651,-0.651,0.6807,0.6507,0.6807,0.6807,0.651,0.6807,-0.6507,0.6507,-0.6807,-0.651,-0.6807,0*%
%ADD10MACRO1*%
%ADD11MACRO2*%
%ADD12C,12.1000*%
%ADD13MACRO3*%
%ADD14MACRO4*%
%ADD15MACRO5*%
%ADD16MACRO6*%
%ADD17MACRO7*%
%ADD18C,0.0117*%
%ADD19MACRO8*%
%ADD20O,2.351608X0.731596*%
%ADD21MACRO9*%
%ADD22C,1.3616*%

%LPD*%
D10*
G01*
X1651000Y12955993D03*
D11*
G01*
X1651000Y10665993D03*
D12*
G01*
X1651000Y11810974D03*
D13*
G01*
X4064000Y12672999D03*
D14*
G01*
X4064000Y12472987D03*
D15*
G01*
X2815971Y11557000D03*
D16*
G01*
X3026041Y11557000D03*
D15*
G01*
X3323971Y11557000D03*
D16*
G01*
X3534041Y11557000D03*
D15*
G01*
X3831971Y11557000D03*
D16*
G01*
X4042041Y11557000D03*
D15*
G01*
X4339971Y11557000D03*
D16*
G01*
X4550041Y11557000D03*
D15*
G01*
X4339971Y11176000D03*
D16*
G01*
X4550041Y11176000D03*
D15*
G01*
X3831971Y11176000D03*
D16*
G01*
X4042041Y11176000D03*
D15*
G01*
X3323971Y11176000D03*
D16*
G01*
X3534041Y11176000D03*
D15*
G01*
X2815971Y11176000D03*
D16*
G01*
X3026041Y11176000D03*
D15*
G01*
X4339971Y10795000D03*
D16*
G01*
X4550041Y10795000D03*
D15*
G01*
X3831971Y10795000D03*
D16*
G01*
X4042041Y10795000D03*
D15*
G01*
X3323971Y10795000D03*
D16*
G01*
X3534041Y10795000D03*
D15*
G01*
X2815971Y10795000D03*
D16*
G01*
X3026041Y10795000D03*
D17*
G01*
X4545012Y12192000D03*
G01*
X4344987Y12192000D03*
G01*
X4545012Y11938000D03*
G01*
X4344987Y11938000D03*
G01*
X4545012Y12446000D03*
G01*
X4344987Y12446000D03*
D19*
G01*
X4064000Y12165012D03*
G01*
X4064000Y11964987D03*
D17*
G01*
X4545012Y12700000D03*
G01*
X4344987Y12700000D03*
D20*
G01*
X2821990Y12636500D03*
G01*
X2821990Y12509500D03*
G01*
X2821990Y12382500D03*
G01*
X2821990Y12255500D03*
G01*
X3528009Y12636500D03*
G01*
X3528009Y12509500D03*
G01*
X3528009Y12382500D03*
G01*
X3528009Y12255500D03*
D21*
G01*
X3683000Y12954000D03*
D22*
G01*
X3429000Y12954000D03*
G01*
X3175000Y12954000D03*
G01*
X2921000Y12954000D03*
G01*
X2667000Y12954000D03*
G01*
X2413000Y12954000D03*
M02*
