G04 Layer: TopPasteMaskLayer*
G04 EasyEDA v6.5.57, 2026-08-10 20:45:29*
G04 c860459aa20a45b9908c3e8366ac2f5b,e19a77d54f684c31816133f074f03367,10*
G04 Gerber Generator version 0.2*
G04 Scale: 100 percent, Rotated: No, Reflected: No *
G04 Dimensions in millimeters *
G04 leading zeros omitted , absolute positions ,4 integer and 5 decimal *
%FSLAX45Y45*%
%MOMM*%

%AMMACRO1*21,1,$1,$2,0,0,$3*%
%ADD10MACRO1,0.9997X1.3995X0.0000*%
%ADD11R,1.0000X1.3995*%
%ADD12O,2.250008X0.629996*%
%ADD13O,0.0178X0.629996*%

%LPD*%
G36*
X1386027Y10790986D02*
G01*
X1386027Y10541000D01*
X1916023Y10541000D01*
X1916023Y10790986D01*
G37*
G36*
X1386027Y13081000D02*
G01*
X1386027Y12831013D01*
X1916023Y12831013D01*
X1916023Y13081000D01*
G37*
G36*
X4040987Y12527991D02*
G01*
X3999992Y12527483D01*
X3995013Y12522504D01*
X3995013Y12407493D01*
X3999992Y12402515D01*
X4128008Y12402515D01*
X4132986Y12407493D01*
X4132986Y12522504D01*
X4128008Y12527483D01*
X4085996Y12527026D01*
X4085996Y12482982D01*
X4040987Y12482982D01*
G37*
G36*
X3999992Y12743484D02*
G01*
X3995013Y12738506D01*
X3995013Y12623495D01*
X3999992Y12618516D01*
X4042003Y12618974D01*
X4042003Y12663017D01*
X4087012Y12663017D01*
X4087012Y12618008D01*
X4128008Y12618516D01*
X4132986Y12623495D01*
X4132986Y12738506D01*
X4128008Y12743484D01*
G37*
G36*
X4280001Y12260986D02*
G01*
X4274972Y12256008D01*
X4274972Y12127992D01*
X4280001Y12123013D01*
X4395012Y12123013D01*
X4399991Y12127992D01*
X4399483Y12170003D01*
X4355490Y12170003D01*
X4355490Y12215012D01*
X4400499Y12215012D01*
X4399991Y12256008D01*
X4395012Y12260986D01*
G37*
G36*
X4494987Y12260986D02*
G01*
X4490008Y12256008D01*
X4490516Y12215012D01*
X4534509Y12215012D01*
X4534509Y12170003D01*
X4490008Y12170003D01*
X4490008Y12127992D01*
X4494987Y12123013D01*
X4609998Y12123013D01*
X4614976Y12127992D01*
X4614976Y12256008D01*
X4609998Y12260986D01*
G37*
G36*
X4280001Y12006986D02*
G01*
X4274972Y12002008D01*
X4274972Y11873992D01*
X4280001Y11869013D01*
X4395012Y11869013D01*
X4399991Y11873992D01*
X4399483Y11916003D01*
X4355490Y11916003D01*
X4355490Y11961012D01*
X4400499Y11961012D01*
X4399991Y12002008D01*
X4395012Y12006986D01*
G37*
G36*
X4494987Y12006986D02*
G01*
X4490008Y12002008D01*
X4490516Y11961012D01*
X4534509Y11961012D01*
X4534509Y11916003D01*
X4490008Y11916003D01*
X4490008Y11873992D01*
X4494987Y11869013D01*
X4609998Y11869013D01*
X4614976Y11873992D01*
X4614976Y12002008D01*
X4609998Y12006986D01*
G37*
G36*
X4280001Y12514986D02*
G01*
X4274972Y12510008D01*
X4274972Y12381992D01*
X4280001Y12377013D01*
X4395012Y12377013D01*
X4399991Y12381992D01*
X4399483Y12424003D01*
X4355490Y12424003D01*
X4355490Y12469012D01*
X4400499Y12469012D01*
X4399991Y12510008D01*
X4395012Y12514986D01*
G37*
G36*
X4494987Y12514986D02*
G01*
X4490008Y12510008D01*
X4490516Y12469012D01*
X4534509Y12469012D01*
X4534509Y12424003D01*
X4490008Y12424003D01*
X4490008Y12381992D01*
X4494987Y12377013D01*
X4609998Y12377013D01*
X4614976Y12381992D01*
X4614976Y12510008D01*
X4609998Y12514986D01*
G37*
G36*
X4040987Y12020499D02*
G01*
X3999992Y12019991D01*
X3995013Y12015012D01*
X3995013Y11900001D01*
X3999992Y11894972D01*
X4128008Y11894972D01*
X4132986Y11900001D01*
X4132986Y12015012D01*
X4128008Y12019991D01*
X4085996Y12019483D01*
X4085996Y11975490D01*
X4040987Y11975490D01*
G37*
G36*
X3999992Y12234976D02*
G01*
X3995013Y12229998D01*
X3995013Y12114987D01*
X3999992Y12110008D01*
X4040987Y12110516D01*
X4040987Y12154509D01*
X4085996Y12154509D01*
X4085996Y12110008D01*
X4128008Y12110008D01*
X4132986Y12114987D01*
X4132986Y12229998D01*
X4128008Y12234976D01*
G37*
G36*
X4280001Y12768986D02*
G01*
X4274972Y12764008D01*
X4274972Y12635992D01*
X4280001Y12631013D01*
X4395012Y12631013D01*
X4399991Y12635992D01*
X4399483Y12678003D01*
X4355490Y12678003D01*
X4355490Y12723012D01*
X4400499Y12723012D01*
X4399991Y12764008D01*
X4395012Y12768986D01*
G37*
G36*
X4494987Y12768986D02*
G01*
X4490008Y12764008D01*
X4490516Y12723012D01*
X4534509Y12723012D01*
X4534509Y12678003D01*
X4490008Y12678003D01*
X4490008Y12635992D01*
X4494987Y12631013D01*
X4609998Y12631013D01*
X4614976Y12635992D01*
X4614976Y12764008D01*
X4609998Y12768986D01*
G37*
D10*
G01*
X2815970Y11557000D03*
D11*
G01*
X3026029Y11557000D03*
D10*
G01*
X3323970Y11557000D03*
D11*
G01*
X3534029Y11557000D03*
D10*
G01*
X3831970Y11557000D03*
D11*
G01*
X4042029Y11557000D03*
D10*
G01*
X4339970Y11557000D03*
D11*
G01*
X4550029Y11557000D03*
D10*
G01*
X4339970Y11176000D03*
D11*
G01*
X4550029Y11176000D03*
D10*
G01*
X3831970Y11176000D03*
D11*
G01*
X4042029Y11176000D03*
D10*
G01*
X3323970Y11176000D03*
D11*
G01*
X3534029Y11176000D03*
D10*
G01*
X2815970Y11176000D03*
D11*
G01*
X3026029Y11176000D03*
D10*
G01*
X4339970Y10795000D03*
D11*
G01*
X4550029Y10795000D03*
D10*
G01*
X3831970Y10795000D03*
D11*
G01*
X4042029Y10795000D03*
D10*
G01*
X3323970Y10795000D03*
D11*
G01*
X3534029Y10795000D03*
D10*
G01*
X2815970Y10795000D03*
D11*
G01*
X3026029Y10795000D03*
D12*
G01*
X2821990Y12636500D03*
G01*
X2821990Y12509500D03*
G01*
X2821990Y12382500D03*
G01*
X2821990Y12255500D03*
G01*
X3528009Y12636500D03*
G01*
X3528009Y12509500D03*
G01*
X3528009Y12382500D03*
G01*
X3528009Y12255500D03*
M02*
