G04 Layer: TopPasteMaskLayer*
G04 EasyEDA v6.5.57, 2026-08-19 20:50:04*
G04 7d210e2a482c436da64240ef64464f19,e2024d25adc543bdaee4eb662c52a2ee,10*
G04 Gerber Generator version 0.2*
G04 Scale: 100 percent, Rotated: No, Reflected: No *
G04 Dimensions in millimeters *
G04 leading zeros omitted , absolute positions ,4 integer and 5 decimal *
%FSLAX45Y45*%
%MOMM*%

%AMMACRO1*21,1,$1,$2,0,0,$3*%
%ADD10MACRO1,0.9997X1.3995X0.0000*%
%ADD11R,1.0000X1.3995*%
%ADD12R,0.0187X1.3995*%

%LPD*%
G36*
X1386027Y10790986D02*
G01*
X1386027Y10541000D01*
X1916023Y10541000D01*
X1916023Y10790986D01*
G37*
G36*
X1386027Y13081000D02*
G01*
X1386027Y12831013D01*
X1916023Y12831013D01*
X1916023Y13081000D01*
G37*
G36*
X4280001Y12768986D02*
G01*
X4274972Y12764008D01*
X4274972Y12635992D01*
X4280001Y12631013D01*
X4395012Y12631013D01*
X4399991Y12635992D01*
X4399483Y12678003D01*
X4355490Y12678003D01*
X4355490Y12723012D01*
X4400499Y12723012D01*
X4399991Y12764008D01*
X4395012Y12768986D01*
G37*
G36*
X4494987Y12768986D02*
G01*
X4490008Y12764008D01*
X4490516Y12723012D01*
X4534509Y12723012D01*
X4534509Y12678003D01*
X4490008Y12678003D01*
X4490008Y12635992D01*
X4494987Y12631013D01*
X4609998Y12631013D01*
X4614976Y12635992D01*
X4614976Y12764008D01*
X4609998Y12768986D01*
G37*
G36*
X3834993Y12768986D02*
G01*
X3830015Y12764008D01*
X3830015Y12635992D01*
X3834993Y12631013D01*
X3950004Y12631013D01*
X3954983Y12635992D01*
X3954526Y12678003D01*
X3910482Y12678003D01*
X3910482Y12723012D01*
X3955491Y12723012D01*
X3954983Y12764008D01*
X3950004Y12768986D01*
G37*
G36*
X4050995Y12768986D02*
G01*
X4046016Y12764008D01*
X4046474Y12721996D01*
X4090517Y12721996D01*
X4090517Y12676987D01*
X4045508Y12676987D01*
X4046016Y12635992D01*
X4050995Y12631013D01*
X4166006Y12631013D01*
X4170984Y12635992D01*
X4170984Y12764008D01*
X4166006Y12768986D01*
G37*
G36*
X4280001Y12006986D02*
G01*
X4274972Y12002008D01*
X4274972Y11873992D01*
X4280001Y11869013D01*
X4395012Y11869013D01*
X4399991Y11873992D01*
X4399483Y11916003D01*
X4355490Y11916003D01*
X4355490Y11961012D01*
X4400499Y11961012D01*
X4399991Y12002008D01*
X4395012Y12006986D01*
G37*
G36*
X4494987Y12006986D02*
G01*
X4490008Y12002008D01*
X4490516Y11961012D01*
X4534509Y11961012D01*
X4534509Y11916003D01*
X4490008Y11916003D01*
X4490008Y11873992D01*
X4494987Y11869013D01*
X4609998Y11869013D01*
X4614976Y11873992D01*
X4614976Y12002008D01*
X4609998Y12006986D01*
G37*
G36*
X3835501Y12006986D02*
G01*
X3830472Y12002008D01*
X3830472Y11873992D01*
X3835501Y11869013D01*
X3950512Y11869013D01*
X3955491Y11873992D01*
X3954983Y11916003D01*
X3910990Y11916003D01*
X3910990Y11961012D01*
X3955999Y11961012D01*
X3955491Y12002008D01*
X3950512Y12006986D01*
G37*
G36*
X4050487Y12006986D02*
G01*
X4045508Y12002008D01*
X4046016Y11961012D01*
X4090009Y11961012D01*
X4090009Y11916003D01*
X4045508Y11916003D01*
X4045508Y11873992D01*
X4050487Y11869013D01*
X4165498Y11869013D01*
X4170476Y11873992D01*
X4170476Y12002008D01*
X4165498Y12006986D01*
G37*
G36*
X3835501Y12387986D02*
G01*
X3830472Y12383008D01*
X3830472Y12254992D01*
X3835501Y12250013D01*
X3950512Y12250013D01*
X3955491Y12254992D01*
X3954983Y12297003D01*
X3910990Y12297003D01*
X3910990Y12342012D01*
X3955999Y12342012D01*
X3955491Y12383008D01*
X3950512Y12387986D01*
G37*
G36*
X4050487Y12387986D02*
G01*
X4045508Y12383008D01*
X4046016Y12342012D01*
X4090009Y12342012D01*
X4090009Y12297003D01*
X4045508Y12297003D01*
X4045508Y12254992D01*
X4050487Y12250013D01*
X4165498Y12250013D01*
X4170476Y12254992D01*
X4170476Y12383008D01*
X4165498Y12387986D01*
G37*
G36*
X4280001Y12387986D02*
G01*
X4274972Y12383008D01*
X4274972Y12254992D01*
X4280001Y12250013D01*
X4395012Y12250013D01*
X4399991Y12254992D01*
X4399483Y12297003D01*
X4355490Y12297003D01*
X4355490Y12342012D01*
X4400499Y12342012D01*
X4399991Y12383008D01*
X4395012Y12387986D01*
G37*
G36*
X4494987Y12387986D02*
G01*
X4490008Y12383008D01*
X4490516Y12342012D01*
X4534509Y12342012D01*
X4534509Y12297003D01*
X4490008Y12297003D01*
X4490008Y12254992D01*
X4494987Y12250013D01*
X4609998Y12250013D01*
X4614976Y12254992D01*
X4614976Y12383008D01*
X4609998Y12387986D01*
G37*
D10*
G01*
X2815970Y11557000D03*
D11*
G01*
X3026029Y11557000D03*
D10*
G01*
X3323970Y11557000D03*
D11*
G01*
X3534029Y11557000D03*
D10*
G01*
X3831970Y11557000D03*
D11*
G01*
X4042029Y11557000D03*
D10*
G01*
X4339970Y11557000D03*
D11*
G01*
X4550029Y11557000D03*
D10*
G01*
X4339970Y11176000D03*
D11*
G01*
X4550029Y11176000D03*
D10*
G01*
X3831970Y11176000D03*
D11*
G01*
X4042029Y11176000D03*
D10*
G01*
X3323970Y11176000D03*
D11*
G01*
X3534029Y11176000D03*
D10*
G01*
X2815970Y11176000D03*
D11*
G01*
X3026029Y11176000D03*
D10*
G01*
X4339970Y10795000D03*
D11*
G01*
X4550029Y10795000D03*
D10*
G01*
X3831970Y10795000D03*
D11*
G01*
X4042029Y10795000D03*
D10*
G01*
X3323970Y10795000D03*
D11*
G01*
X3534029Y10795000D03*
D10*
G01*
X2815970Y10795000D03*
D11*
G01*
X3026029Y10795000D03*
M02*
