G04 Layer: TopSilkscreenLayer*
G04 EasyEDA v6.5.57, 2026-08-19 20:50:04*
G04 7d210e2a482c436da64240ef64464f19,e2024d25adc543bdaee4eb662c52a2ee,10*
G04 Gerber Generator version 0.2*
G04 Scale: 100 percent, Rotated: No, Reflected: No *
G04 Dimensions in millimeters *
G04 leading zeros omitted , absolute positions ,4 integer and 5 decimal *
%FSLAX45Y45*%
%MOMM*%

%ADD10C,0.1524*%
%ADD11C,0.2540*%
%ADD12C,0.3000*%
%ADD13C,0.0198*%

%LPD*%
D10*
X2552318Y11822391D02*
G01*
X2443352Y11822391D01*
X2552318Y11822391D02*
G01*
X2552318Y11775655D01*
X2547238Y11760161D01*
X2541904Y11754827D01*
X2531490Y11749747D01*
X2521077Y11749747D01*
X2510663Y11754827D01*
X2505583Y11760161D01*
X2500502Y11775655D01*
X2500502Y11822391D02*
G01*
X2500502Y11775655D01*
X2495168Y11760161D01*
X2490088Y11754827D01*
X2479675Y11749747D01*
X2463927Y11749747D01*
X2453513Y11754827D01*
X2448433Y11760161D01*
X2443352Y11775655D01*
X2443352Y11822391D01*
X2552318Y11678881D02*
G01*
X2443352Y11678881D01*
X2552318Y11715457D02*
G01*
X2552318Y11642559D01*
X2531490Y11608269D02*
G01*
X2536825Y11597855D01*
X2552318Y11582361D01*
X2443352Y11582361D01*
X2897250Y11799188D02*
G01*
X2897250Y11721211D01*
X2902331Y11705717D01*
X2912745Y11695303D01*
X2928493Y11690222D01*
X2938906Y11690222D01*
X2954400Y11695303D01*
X2964815Y11705717D01*
X2969895Y11721211D01*
X2969895Y11799188D01*
X3004184Y11778361D02*
G01*
X3014599Y11783695D01*
X3030347Y11799188D01*
X3030347Y11690222D01*
X3405250Y11799188D02*
G01*
X3405250Y11721211D01*
X3410331Y11705717D01*
X3420745Y11695303D01*
X3436493Y11690222D01*
X3446906Y11690222D01*
X3462400Y11695303D01*
X3472815Y11705717D01*
X3477895Y11721211D01*
X3477895Y11799188D01*
X3538347Y11799188D02*
G01*
X3522599Y11794109D01*
X3517518Y11783695D01*
X3517518Y11773280D01*
X3522599Y11762867D01*
X3533013Y11757533D01*
X3553840Y11752453D01*
X3569334Y11747372D01*
X3579749Y11736959D01*
X3585083Y11726545D01*
X3585083Y11710796D01*
X3579749Y11700383D01*
X3574668Y11695303D01*
X3558920Y11690222D01*
X3538347Y11690222D01*
X3522599Y11695303D01*
X3517518Y11700383D01*
X3512184Y11710796D01*
X3512184Y11726545D01*
X3517518Y11736959D01*
X3527933Y11747372D01*
X3543427Y11752453D01*
X3564254Y11757533D01*
X3574668Y11762867D01*
X3579749Y11773280D01*
X3579749Y11783695D01*
X3574668Y11794109D01*
X3558920Y11799188D01*
X3538347Y11799188D01*
X3913250Y11799188D02*
G01*
X3913250Y11721211D01*
X3918331Y11705717D01*
X3928745Y11695303D01*
X3944493Y11690222D01*
X3954906Y11690222D01*
X3970400Y11695303D01*
X3980815Y11705717D01*
X3985895Y11721211D01*
X3985895Y11799188D01*
X4087749Y11762867D02*
G01*
X4082668Y11747372D01*
X4072254Y11736959D01*
X4056761Y11731625D01*
X4051427Y11731625D01*
X4035933Y11736959D01*
X4025518Y11747372D01*
X4020184Y11762867D01*
X4020184Y11767946D01*
X4025518Y11783695D01*
X4035933Y11794109D01*
X4051427Y11799188D01*
X4056761Y11799188D01*
X4072254Y11794109D01*
X4082668Y11783695D01*
X4087749Y11762867D01*
X4087749Y11736959D01*
X4082668Y11710796D01*
X4072254Y11695303D01*
X4056761Y11690222D01*
X4046347Y11690222D01*
X4030599Y11695303D01*
X4025518Y11705717D01*
X4421250Y11799188D02*
G01*
X4421250Y11721211D01*
X4426331Y11705717D01*
X4436745Y11695303D01*
X4452493Y11690222D01*
X4462906Y11690222D01*
X4478400Y11695303D01*
X4488815Y11705717D01*
X4493895Y11721211D01*
X4493895Y11799188D01*
X4528184Y11778361D02*
G01*
X4538599Y11783695D01*
X4554347Y11799188D01*
X4554347Y11690222D01*
X4619625Y11799188D02*
G01*
X4604131Y11794109D01*
X4593716Y11778361D01*
X4588636Y11752453D01*
X4588636Y11736959D01*
X4593716Y11710796D01*
X4604131Y11695303D01*
X4619625Y11690222D01*
X4630038Y11690222D01*
X4645786Y11695303D01*
X4656200Y11710796D01*
X4661281Y11736959D01*
X4661281Y11752453D01*
X4656200Y11778361D01*
X4645786Y11794109D01*
X4630038Y11799188D01*
X4619625Y11799188D01*
X4421250Y11418188D02*
G01*
X4421250Y11340211D01*
X4426331Y11324717D01*
X4436745Y11314303D01*
X4452493Y11309222D01*
X4462906Y11309222D01*
X4478400Y11314303D01*
X4488815Y11324717D01*
X4493895Y11340211D01*
X4493895Y11418188D01*
X4528184Y11397361D02*
G01*
X4538599Y11402695D01*
X4554347Y11418188D01*
X4554347Y11309222D01*
X4588636Y11397361D02*
G01*
X4599050Y11402695D01*
X4614545Y11418188D01*
X4614545Y11309222D01*
X3913250Y11418188D02*
G01*
X3913250Y11340211D01*
X3918331Y11324717D01*
X3928745Y11314303D01*
X3944493Y11309222D01*
X3954906Y11309222D01*
X3970400Y11314303D01*
X3980815Y11324717D01*
X3985895Y11340211D01*
X3985895Y11418188D01*
X4020184Y11397361D02*
G01*
X4030599Y11402695D01*
X4046347Y11418188D01*
X4046347Y11309222D01*
X4085716Y11392280D02*
G01*
X4085716Y11397361D01*
X4091050Y11407775D01*
X4096131Y11413109D01*
X4106545Y11418188D01*
X4127372Y11418188D01*
X4137786Y11413109D01*
X4142866Y11407775D01*
X4148200Y11397361D01*
X4148200Y11386946D01*
X4142866Y11376533D01*
X4132452Y11361038D01*
X4080636Y11309222D01*
X4153281Y11309222D01*
X3405250Y11418188D02*
G01*
X3405250Y11340211D01*
X3410331Y11324717D01*
X3420745Y11314303D01*
X3436493Y11309222D01*
X3446906Y11309222D01*
X3462400Y11314303D01*
X3472815Y11324717D01*
X3477895Y11340211D01*
X3477895Y11418188D01*
X3512184Y11397361D02*
G01*
X3522599Y11402695D01*
X3538347Y11418188D01*
X3538347Y11309222D01*
X3583050Y11418188D02*
G01*
X3640200Y11418188D01*
X3608959Y11376533D01*
X3624452Y11376533D01*
X3634866Y11371453D01*
X3640200Y11366372D01*
X3645281Y11350625D01*
X3645281Y11340211D01*
X3640200Y11324717D01*
X3629786Y11314303D01*
X3614038Y11309222D01*
X3598545Y11309222D01*
X3583050Y11314303D01*
X3577716Y11319383D01*
X3572636Y11329796D01*
X2897250Y11418188D02*
G01*
X2897250Y11340211D01*
X2902331Y11324717D01*
X2912745Y11314303D01*
X2928493Y11309222D01*
X2938906Y11309222D01*
X2954400Y11314303D01*
X2964815Y11324717D01*
X2969895Y11340211D01*
X2969895Y11418188D01*
X3004184Y11397361D02*
G01*
X3014599Y11402695D01*
X3030347Y11418188D01*
X3030347Y11309222D01*
X3116452Y11418188D02*
G01*
X3064636Y11345545D01*
X3142361Y11345545D01*
X3116452Y11418188D02*
G01*
X3116452Y11309222D01*
X4421250Y11037188D02*
G01*
X4421250Y10959211D01*
X4426331Y10943717D01*
X4436745Y10933303D01*
X4452493Y10928222D01*
X4462906Y10928222D01*
X4478400Y10933303D01*
X4488815Y10943717D01*
X4493895Y10959211D01*
X4493895Y11037188D01*
X4528184Y11016361D02*
G01*
X4538599Y11021695D01*
X4554347Y11037188D01*
X4554347Y10928222D01*
X4650866Y11037188D02*
G01*
X4599050Y11037188D01*
X4593716Y10990453D01*
X4599050Y10995533D01*
X4614545Y11000867D01*
X4630038Y11000867D01*
X4645786Y10995533D01*
X4656200Y10985372D01*
X4661281Y10969625D01*
X4661281Y10959211D01*
X4656200Y10943717D01*
X4645786Y10933303D01*
X4630038Y10928222D01*
X4614545Y10928222D01*
X4599050Y10933303D01*
X4593716Y10938383D01*
X4588636Y10948796D01*
X3913250Y11037188D02*
G01*
X3913250Y10959211D01*
X3918331Y10943717D01*
X3928745Y10933303D01*
X3944493Y10928222D01*
X3954906Y10928222D01*
X3970400Y10933303D01*
X3980815Y10943717D01*
X3985895Y10959211D01*
X3985895Y11037188D01*
X4020184Y11016361D02*
G01*
X4030599Y11021695D01*
X4046347Y11037188D01*
X4046347Y10928222D01*
X4142866Y11021695D02*
G01*
X4137786Y11032109D01*
X4122038Y11037188D01*
X4111625Y11037188D01*
X4096131Y11032109D01*
X4085716Y11016361D01*
X4080636Y10990453D01*
X4080636Y10964545D01*
X4085716Y10943717D01*
X4096131Y10933303D01*
X4111625Y10928222D01*
X4116959Y10928222D01*
X4132452Y10933303D01*
X4142866Y10943717D01*
X4148200Y10959211D01*
X4148200Y10964545D01*
X4142866Y10980038D01*
X4132452Y10990453D01*
X4116959Y10995533D01*
X4111625Y10995533D01*
X4096131Y10990453D01*
X4085716Y10980038D01*
X4080636Y10964545D01*
X3405250Y11037188D02*
G01*
X3405250Y10959211D01*
X3410331Y10943717D01*
X3420745Y10933303D01*
X3436493Y10928222D01*
X3446906Y10928222D01*
X3462400Y10933303D01*
X3472815Y10943717D01*
X3477895Y10959211D01*
X3477895Y11037188D01*
X3512184Y11016361D02*
G01*
X3522599Y11021695D01*
X3538347Y11037188D01*
X3538347Y10928222D01*
X3645281Y11037188D02*
G01*
X3593211Y10928222D01*
X3572636Y11037188D02*
G01*
X3645281Y11037188D01*
X2897250Y11037188D02*
G01*
X2897250Y10959211D01*
X2902331Y10943717D01*
X2912745Y10933303D01*
X2928493Y10928222D01*
X2938906Y10928222D01*
X2954400Y10933303D01*
X2964815Y10943717D01*
X2969895Y10959211D01*
X2969895Y11037188D01*
X3004184Y11016361D02*
G01*
X3014599Y11021695D01*
X3030347Y11037188D01*
X3030347Y10928222D01*
X3090545Y11037188D02*
G01*
X3075050Y11032109D01*
X3069716Y11021695D01*
X3069716Y11011280D01*
X3075050Y11000867D01*
X3085211Y10995533D01*
X3106038Y10990453D01*
X3121786Y10985372D01*
X3132200Y10974959D01*
X3137281Y10964545D01*
X3137281Y10948796D01*
X3132200Y10938383D01*
X3126866Y10933303D01*
X3111372Y10928222D01*
X3090545Y10928222D01*
X3075050Y10933303D01*
X3069716Y10938383D01*
X3064636Y10948796D01*
X3064636Y10964545D01*
X3069716Y10974959D01*
X3080131Y10985372D01*
X3095625Y10990453D01*
X3116452Y10995533D01*
X3126866Y11000867D01*
X3132200Y11011280D01*
X3132200Y11021695D01*
X3126866Y11032109D01*
X3111372Y11037188D01*
X3090545Y11037188D01*
X4445000Y12942315D02*
G01*
X4445000Y12864337D01*
X4450079Y12848844D01*
X4460493Y12838429D01*
X4476241Y12833350D01*
X4486656Y12833350D01*
X4502150Y12838429D01*
X4512563Y12848844D01*
X4517643Y12864337D01*
X4517643Y12942315D01*
X4614418Y12926821D02*
G01*
X4609084Y12937236D01*
X4593590Y12942315D01*
X4583175Y12942315D01*
X4567681Y12937236D01*
X4557268Y12921487D01*
X4551934Y12895579D01*
X4551934Y12869671D01*
X4557268Y12848844D01*
X4567681Y12838429D01*
X4583175Y12833350D01*
X4588509Y12833350D01*
X4604004Y12838429D01*
X4614418Y12848844D01*
X4619497Y12864337D01*
X4619497Y12869671D01*
X4614418Y12885165D01*
X4604004Y12895579D01*
X4588509Y12900660D01*
X4583175Y12900660D01*
X4567681Y12895579D01*
X4557268Y12885165D01*
X4551934Y12869671D01*
X4078477Y12916408D02*
G01*
X4073143Y12926821D01*
X4062729Y12937236D01*
X4052570Y12942315D01*
X4031741Y12942315D01*
X4021327Y12937236D01*
X4010913Y12926821D01*
X4005579Y12916408D01*
X4000500Y12900660D01*
X4000500Y12874752D01*
X4005579Y12859258D01*
X4010913Y12848844D01*
X4021327Y12838429D01*
X4031741Y12833350D01*
X4052570Y12833350D01*
X4062729Y12838429D01*
X4073143Y12848844D01*
X4078477Y12859258D01*
X4117847Y12916408D02*
G01*
X4117847Y12921487D01*
X4123181Y12931902D01*
X4128261Y12937236D01*
X4138675Y12942315D01*
X4159504Y12942315D01*
X4169918Y12937236D01*
X4174997Y12931902D01*
X4180331Y12921487D01*
X4180331Y12911074D01*
X4174997Y12900660D01*
X4164584Y12885165D01*
X4112768Y12833350D01*
X4185411Y12833350D01*
X3734815Y12433300D02*
G01*
X3656838Y12433300D01*
X3641343Y12428220D01*
X3630929Y12417805D01*
X3625850Y12402058D01*
X3625850Y12391644D01*
X3630929Y12376150D01*
X3641343Y12365736D01*
X3656838Y12360655D01*
X3734815Y12360655D01*
X3708908Y12321031D02*
G01*
X3713988Y12321031D01*
X3724402Y12315952D01*
X3729736Y12310618D01*
X3734815Y12300204D01*
X3734815Y12279629D01*
X3729736Y12269215D01*
X3724402Y12263881D01*
X3713988Y12258802D01*
X3703574Y12258802D01*
X3693159Y12263881D01*
X3677665Y12274295D01*
X3625850Y12326365D01*
X3625850Y12253468D01*
X3734815Y12188189D02*
G01*
X3729736Y12203684D01*
X3713988Y12214097D01*
X3688079Y12219178D01*
X3672586Y12219178D01*
X3646424Y12214097D01*
X3630929Y12203684D01*
X3625850Y12188189D01*
X3625850Y12177776D01*
X3630929Y12162028D01*
X3646424Y12151613D01*
X3672586Y12146534D01*
X3688079Y12146534D01*
X3713988Y12151613D01*
X3729736Y12162028D01*
X3734815Y12177776D01*
X3734815Y12188189D01*
X4445000Y12180315D02*
G01*
X4445000Y12102337D01*
X4450079Y12086844D01*
X4460493Y12076429D01*
X4476241Y12071350D01*
X4486656Y12071350D01*
X4502150Y12076429D01*
X4512563Y12086844D01*
X4517643Y12102337D01*
X4517643Y12180315D01*
X4557268Y12154408D02*
G01*
X4557268Y12159487D01*
X4562347Y12169902D01*
X4567681Y12175236D01*
X4578095Y12180315D01*
X4598670Y12180315D01*
X4609084Y12175236D01*
X4614418Y12169902D01*
X4619497Y12159487D01*
X4619497Y12149074D01*
X4614418Y12138660D01*
X4604004Y12123165D01*
X4551934Y12071350D01*
X4624831Y12071350D01*
X4659122Y12159487D02*
G01*
X4669536Y12164821D01*
X4685029Y12180315D01*
X4685029Y12071350D01*
X4000500Y12180315D02*
G01*
X4000500Y12102337D01*
X4005579Y12086844D01*
X4015993Y12076429D01*
X4031741Y12071350D01*
X4042156Y12071350D01*
X4057650Y12076429D01*
X4068063Y12086844D01*
X4073143Y12102337D01*
X4073143Y12180315D01*
X4112768Y12154408D02*
G01*
X4112768Y12159487D01*
X4117847Y12169902D01*
X4123181Y12175236D01*
X4133595Y12180315D01*
X4154170Y12180315D01*
X4164584Y12175236D01*
X4169918Y12169902D01*
X4174997Y12159487D01*
X4174997Y12149074D01*
X4169918Y12138660D01*
X4159504Y12123165D01*
X4107434Y12071350D01*
X4180331Y12071350D01*
X4219702Y12154408D02*
G01*
X4219702Y12159487D01*
X4225036Y12169902D01*
X4230115Y12175236D01*
X4240529Y12180315D01*
X4261358Y12180315D01*
X4271772Y12175236D01*
X4276852Y12169902D01*
X4282186Y12159487D01*
X4282186Y12149074D01*
X4276852Y12138660D01*
X4266438Y12123165D01*
X4214622Y12071350D01*
X4287265Y12071350D01*
X4000500Y12561315D02*
G01*
X4000500Y12483337D01*
X4005579Y12467844D01*
X4015993Y12457429D01*
X4031741Y12452350D01*
X4042156Y12452350D01*
X4057650Y12457429D01*
X4068063Y12467844D01*
X4073143Y12483337D01*
X4073143Y12561315D01*
X4112768Y12535408D02*
G01*
X4112768Y12540487D01*
X4117847Y12550902D01*
X4123181Y12556236D01*
X4133595Y12561315D01*
X4154170Y12561315D01*
X4164584Y12556236D01*
X4169918Y12550902D01*
X4174997Y12540487D01*
X4174997Y12530074D01*
X4169918Y12519660D01*
X4159504Y12504165D01*
X4107434Y12452350D01*
X4180331Y12452350D01*
X4225036Y12561315D02*
G01*
X4282186Y12561315D01*
X4250943Y12519660D01*
X4266438Y12519660D01*
X4276852Y12514579D01*
X4282186Y12509500D01*
X4287265Y12493752D01*
X4287265Y12483337D01*
X4282186Y12467844D01*
X4271772Y12457429D01*
X4256024Y12452350D01*
X4240529Y12452350D01*
X4225036Y12457429D01*
X4219702Y12462510D01*
X4214622Y12472924D01*
X4445000Y12561315D02*
G01*
X4445000Y12483337D01*
X4450079Y12467844D01*
X4460493Y12457429D01*
X4476241Y12452350D01*
X4486656Y12452350D01*
X4502150Y12457429D01*
X4512563Y12467844D01*
X4517643Y12483337D01*
X4517643Y12561315D01*
X4557268Y12535408D02*
G01*
X4557268Y12540487D01*
X4562347Y12550902D01*
X4567681Y12556236D01*
X4578095Y12561315D01*
X4598670Y12561315D01*
X4609084Y12556236D01*
X4614418Y12550902D01*
X4619497Y12540487D01*
X4619497Y12530074D01*
X4614418Y12519660D01*
X4604004Y12504165D01*
X4551934Y12452350D01*
X4624831Y12452350D01*
X4710938Y12561315D02*
G01*
X4659122Y12488671D01*
X4737100Y12488671D01*
X4710938Y12561315D02*
G01*
X4710938Y12452350D01*
D11*
X2138926Y12865346D02*
G01*
X1930811Y12865346D01*
X2405882Y11048992D02*
G01*
X2138926Y10755876D01*
X1930811Y10756892D01*
X1374068Y10755876D02*
G01*
X1373621Y10755876D01*
X855972Y11214092D02*
G01*
X1373621Y10760445D01*
X855972Y12407892D02*
G01*
X1373621Y12861538D01*
X2406004Y12547592D02*
G01*
X2406004Y11048992D01*
X2405882Y12547592D02*
G01*
X2138926Y12865346D01*
X2940999Y11606999D02*
G01*
X2901000Y11566999D01*
X2891000Y11557000D01*
X2901000Y11546974D01*
X2940999Y11506974D01*
X2940999Y11606999D02*
G01*
X2940999Y11506974D01*
X2965322Y11455272D02*
G01*
X3120263Y11455272D01*
X3120263Y11658472D01*
X2965322Y11658472D01*
X2886583Y11452733D02*
G01*
X2739263Y11452733D01*
X2698622Y11493372D01*
X2698622Y11620372D01*
X2736722Y11658472D01*
X2889122Y11658472D01*
X3448999Y11606999D02*
G01*
X3409000Y11566999D01*
X3399000Y11557000D01*
X3409000Y11546974D01*
X3448999Y11506974D01*
X3448999Y11606999D02*
G01*
X3448999Y11506974D01*
X3473322Y11455272D02*
G01*
X3628263Y11455272D01*
X3628263Y11658472D01*
X3473322Y11658472D01*
X3394583Y11452733D02*
G01*
X3247263Y11452733D01*
X3206622Y11493372D01*
X3206622Y11620372D01*
X3244722Y11658472D01*
X3397122Y11658472D01*
X3956999Y11606999D02*
G01*
X3917000Y11566999D01*
X3907000Y11557000D01*
X3917000Y11546974D01*
X3956999Y11506974D01*
X3956999Y11606999D02*
G01*
X3956999Y11506974D01*
X3981322Y11455272D02*
G01*
X4136263Y11455272D01*
X4136263Y11658472D01*
X3981322Y11658472D01*
X3902583Y11452733D02*
G01*
X3755263Y11452733D01*
X3714622Y11493372D01*
X3714622Y11620372D01*
X3752722Y11658472D01*
X3905122Y11658472D01*
X4464999Y11606999D02*
G01*
X4425000Y11566999D01*
X4415000Y11557000D01*
X4425000Y11546974D01*
X4464999Y11506974D01*
X4464999Y11606999D02*
G01*
X4464999Y11506974D01*
X4489322Y11455272D02*
G01*
X4644263Y11455272D01*
X4644263Y11658472D01*
X4489322Y11658472D01*
X4410583Y11452733D02*
G01*
X4263263Y11452733D01*
X4222622Y11493372D01*
X4222622Y11620372D01*
X4260722Y11658472D01*
X4413122Y11658472D01*
X4464999Y11225999D02*
G01*
X4425000Y11185999D01*
X4415000Y11176000D01*
X4425000Y11165974D01*
X4464999Y11125974D01*
X4464999Y11225999D02*
G01*
X4464999Y11125974D01*
X4489322Y11074272D02*
G01*
X4644263Y11074272D01*
X4644263Y11277472D01*
X4489322Y11277472D01*
X4410583Y11071733D02*
G01*
X4263263Y11071733D01*
X4222622Y11112372D01*
X4222622Y11239372D01*
X4260722Y11277472D01*
X4413122Y11277472D01*
X3956999Y11225999D02*
G01*
X3917000Y11185999D01*
X3907000Y11176000D01*
X3917000Y11165974D01*
X3956999Y11125974D01*
X3956999Y11225999D02*
G01*
X3956999Y11125974D01*
X3981322Y11074272D02*
G01*
X4136263Y11074272D01*
X4136263Y11277472D01*
X3981322Y11277472D01*
X3902583Y11071733D02*
G01*
X3755263Y11071733D01*
X3714622Y11112372D01*
X3714622Y11239372D01*
X3752722Y11277472D01*
X3905122Y11277472D01*
X3448999Y11225999D02*
G01*
X3409000Y11185999D01*
X3399000Y11176000D01*
X3409000Y11165974D01*
X3448999Y11125974D01*
X3448999Y11225999D02*
G01*
X3448999Y11125974D01*
X3473322Y11074272D02*
G01*
X3628263Y11074272D01*
X3628263Y11277472D01*
X3473322Y11277472D01*
X3394583Y11071733D02*
G01*
X3247263Y11071733D01*
X3206622Y11112372D01*
X3206622Y11239372D01*
X3244722Y11277472D01*
X3397122Y11277472D01*
X2940999Y11225999D02*
G01*
X2901000Y11185999D01*
X2891000Y11176000D01*
X2901000Y11165974D01*
X2940999Y11125974D01*
X2940999Y11225999D02*
G01*
X2940999Y11125974D01*
X2965322Y11074272D02*
G01*
X3120263Y11074272D01*
X3120263Y11277472D01*
X2965322Y11277472D01*
X2886583Y11071733D02*
G01*
X2739263Y11071733D01*
X2698622Y11112372D01*
X2698622Y11239372D01*
X2736722Y11277472D01*
X2889122Y11277472D01*
X4464999Y10844999D02*
G01*
X4425000Y10804999D01*
X4415000Y10795000D01*
X4425000Y10784974D01*
X4464999Y10744974D01*
X4464999Y10844999D02*
G01*
X4464999Y10744974D01*
X4489322Y10693272D02*
G01*
X4644263Y10693272D01*
X4644263Y10896472D01*
X4489322Y10896472D01*
X4410583Y10690733D02*
G01*
X4263263Y10690733D01*
X4222622Y10731372D01*
X4222622Y10858372D01*
X4260722Y10896472D01*
X4413122Y10896472D01*
X3956999Y10844999D02*
G01*
X3917000Y10804999D01*
X3907000Y10795000D01*
X3917000Y10784974D01*
X3956999Y10744974D01*
X3956999Y10844999D02*
G01*
X3956999Y10744974D01*
X3981322Y10693272D02*
G01*
X4136263Y10693272D01*
X4136263Y10896472D01*
X3981322Y10896472D01*
X3902583Y10690733D02*
G01*
X3755263Y10690733D01*
X3714622Y10731372D01*
X3714622Y10858372D01*
X3752722Y10896472D01*
X3905122Y10896472D01*
X3448999Y10844999D02*
G01*
X3409000Y10804999D01*
X3399000Y10795000D01*
X3409000Y10784974D01*
X3448999Y10744974D01*
X3448999Y10844999D02*
G01*
X3448999Y10744974D01*
X3473322Y10693272D02*
G01*
X3628263Y10693272D01*
X3628263Y10896472D01*
X3473322Y10896472D01*
X3394583Y10690733D02*
G01*
X3247263Y10690733D01*
X3206622Y10731372D01*
X3206622Y10858372D01*
X3244722Y10896472D01*
X3397122Y10896472D01*
X2940999Y10844999D02*
G01*
X2901000Y10804999D01*
X2891000Y10795000D01*
X2901000Y10784974D01*
X2940999Y10744974D01*
X2940999Y10844999D02*
G01*
X2940999Y10744974D01*
X2965322Y10693272D02*
G01*
X3120263Y10693272D01*
X3120263Y10896472D01*
X2965322Y10896472D01*
X2886583Y10690733D02*
G01*
X2739263Y10690733D01*
X2698622Y10731372D01*
X2698622Y10858372D01*
X2736722Y10896472D01*
X2889122Y10896472D01*
D10*
X4492619Y12608290D02*
G01*
X4621113Y12608290D01*
X4621113Y12791709D01*
X4492619Y12791709D01*
X4397380Y12608290D02*
G01*
X4268886Y12608290D01*
X4268886Y12791709D01*
X4397380Y12791709D01*
X4181619Y12790360D02*
G01*
X4040619Y12790360D01*
X4040619Y12609639D02*
G01*
X4181619Y12609639D01*
X4196859Y12624879D02*
G01*
X4196859Y12775120D01*
X3819380Y12790360D02*
G01*
X3960380Y12790360D01*
X3960380Y12609639D02*
G01*
X3819380Y12609639D01*
X3804140Y12624879D02*
G01*
X3804140Y12775120D01*
X3031500Y12855117D02*
G01*
X2839359Y12855117D01*
X2839359Y11909879D01*
X3383638Y11909879D01*
X3383638Y12855117D01*
X3191499Y12855117D01*
X4492619Y11846290D02*
G01*
X4621113Y11846290D01*
X4621113Y12029709D01*
X4492619Y12029709D01*
X4397380Y11846290D02*
G01*
X4268886Y11846290D01*
X4268886Y12029709D01*
X4397380Y12029709D01*
X4048119Y11846290D02*
G01*
X4176613Y11846290D01*
X4176613Y12029709D01*
X4048119Y12029709D01*
X3952880Y11846290D02*
G01*
X3824386Y11846290D01*
X3824386Y12029709D01*
X3952880Y12029709D01*
X4048119Y12227290D02*
G01*
X4176613Y12227290D01*
X4176613Y12410709D01*
X4048119Y12410709D01*
X3952880Y12227290D02*
G01*
X3824386Y12227290D01*
X3824386Y12410709D01*
X3952880Y12410709D01*
X4492619Y12227290D02*
G01*
X4621113Y12227290D01*
X4621113Y12410709D01*
X4492619Y12410709D01*
X4397380Y12227290D02*
G01*
X4268886Y12227290D01*
X4268886Y12410709D01*
X4397380Y12410709D01*
D11*
G75*
G01*
X856008Y12407892D02*
G02*
X855972Y11214092I-1083861J-596867D01*
D10*
G75*
G01*
X4181620Y12609640D02*
G03*
X4196860Y12624880I0J15240D01*
G75*
G01*
X4196860Y12775121D02*
G03*
X4181620Y12790360I-15240J-1D01*
G75*
G01*
X3819380Y12609640D02*
G02*
X3804140Y12624880I0J15240D01*
G75*
G01*
X3804140Y12775121D02*
G02*
X3819380Y12790360I15240J-1D01*
G75*
G01*
X3031500Y12855118D02*
G03*
X3191500Y12855118I80000J0D01*
D12*
G75*
G01
X2746273Y12907747D02*
G03X2746273Y12907747I-15011J0D01*
M02*
